Coordinates
version=1
nRows=26
nColumns=22
inDegrees=yes

Units are S.I. units (second, meters, Newtons, ...)
If the header above contains a line with 'inDegrees', this indicates whether rotational values are in degrees (yes) or radians (no).

endheader
time	pelvis_tilt	pelvis_list	pelvis_rotation	pelvis_tx	pelvis_ty	pelvis_tz	hip_flexion_r	hip_adduction_r	hip_rotation_r	knee_angle_r	ankle_angle_r	subtalar_angle_r	hip_flexion_l	hip_adduction_l	hip_rotation_l	knee_angle_l	ankle_angle_l	subtalar_angle_l	lumbar_extension	lumbar_bending	lumbar_rotation
      1.19000000	     -4.37699383	     -7.57165371	      2.26514107	     -1.06798406	      0.97622777	      0.09389963	      8.26817765	      7.87927117	     -3.71240363	    -16.67015539	     10.31415088	      1.65068418	      4.65475103	     -5.33399030	      5.09537033	     -9.96760044	     12.24411128	     -3.70631663	      1.76274083	      5.79275274	     -7.70277114
      1.20000000	     -4.34832323	     -7.55306250	      2.35177734	     -1.06724937	      0.97614552	      0.09327212	      8.23761703	      7.81266891	     -3.79844164	    -16.75547689	     10.42239273	      1.70378352	      4.56459701	     -5.28080420	      5.20016912	     -9.92853842	     12.29218093	     -3.75028352	      1.71799287	      5.77998337	     -7.71019816
      1.21000000	     -4.32363963	     -7.54176715	      2.42980379	     -1.06652422	      0.97605634	      0.09265100	      8.23690150	      7.75636517	     -3.85288594	    -16.88317554	     10.50390459	      1.75639773	      4.49988513	     -5.23390036	      5.30598011	     -9.92976620	     12.34826901	     -3.78759542	      1.67117196	      5.77624552	     -7.69107764
      1.22000000	     -4.29686915	     -7.50932680	      2.53339233	     -1.06579065	      0.97595775	      0.09196663	      8.26154846	      7.66960388	     -3.93043220	    -17.06104811	     10.61359816	      1.85764994	      4.45196846	     -5.15816933	      5.42837862	     -9.95950154	     12.38290316	     -3.84964898	      1.61977756	      5.75147316	     -7.71526789
      1.23000000	     -4.27462152	     -7.49038524	      2.61802523	     -1.06501625	      0.97582925	      0.09131521	      8.31525876	      7.60090680	     -3.99157986	    -17.28465524	     10.71897496	      1.89943527	      4.41164323	     -5.09915835	      5.53280376	    -10.00408028	     12.48257750	     -3.88913767	      1.57300057	      5.74076598	     -7.67427966
      1.24000000	     -4.29053314	     -7.42980126	      2.73950349	     -1.06430587	      0.97563325	      0.09055838	      8.45999981	      7.47092957	     -4.08752494	    -17.59410338	     10.86552264	      2.05977134	      4.44160499	     -4.98091479	      5.69673600	    -10.08722445	     12.51808672	     -3.98737782	      1.55954771	      5.68788388	     -7.70254107
      1.25000000	     -4.26738677	     -7.36413991	      2.84716080	     -1.06349776	      0.97544894	      0.08983100	      8.58202519	      7.34272696	     -4.16370902	    -17.95057844	     11.03112501	      2.10945394	      4.42041088	     -4.86388872	      5.80166455	    -10.16827696	     12.60913593	     -4.03321704	      1.50715927	      5.63072578	     -7.71880029
      1.26000000	     -4.28161106	     -7.27862530	      2.96466262	     -1.06272340	      0.97519346	      0.08906368	      8.78918370	      7.18352782	     -4.25400191	    -18.38492360	     11.20113046	      2.20933185	      4.44848831	     -4.71764291	      5.96529352	    -10.26372749	     12.67042092	     -4.09259489	      1.48979117	      5.55070621	     -7.71623248
      1.27000000	     -4.25926361	     -7.17608188	      3.07965344	     -1.06186497	      0.97493532	      0.08828801	      8.98586272	      7.00787380	     -4.33555169	    -18.88283335	     11.40289787	      2.25562883	      4.42395312	     -4.55757696	      6.07670900	    -10.34598228	     12.77148977	     -4.13257149	      1.43471086	      5.45686466	     -7.74393560
      1.28000000	     -4.25403392	     -7.04496702	      3.19690994	     -1.06100469	      0.97461805	      0.08748762	      9.24958878	      6.79495817	     -4.42031957	    -19.47017461	     11.61539311	      2.31589792	      4.41484756	     -4.36334603	      6.21316919	    -10.42926751	     12.85352092	     -4.17351185	      1.39454299	      5.33120286	     -7.76133281
      1.29000000	     -4.25411219	     -6.88970210	      3.31035080	     -1.06012344	      0.97424238	      0.08667664	      9.56923055	      6.55202527	     -4.49860831	    -20.15122497	     11.84282909	      2.38304017	      4.40489068	     -4.14331774	      6.34227928	    -10.51000360	     12.94115575	     -4.21897769	      1.35702578	      5.17900414	     -7.77777387
      1.30000000	     -4.25756325	     -6.70469163	      3.41738824	     -1.05921085	      0.97381071	      0.08586076	      9.94729357	      6.27500850	     -4.56130124	    -20.93497000	     12.08481435	      2.45221220	      4.38642077	     -3.89191373	      6.45588394	    -10.58134698	     13.03102287	     -4.26943475	      1.32030077	      4.99416300	     -7.80030007
      1.31000000	     -4.31607098	     -6.50230952	      3.50968409	     -1.05832046	      0.97326260	      0.08505090	     10.45844112	      5.97090424	     -4.60758255	    -21.84687486	     12.31472853	      2.58317945	      4.42065451	     -3.61871235	      6.58311103	    -10.64955529	     13.09279450	     -4.34537101	      1.33745455	      4.78899006	     -7.79609214
      1.32000000	     -4.34198301	     -6.26774009	      3.59075008	     -1.05732266	      0.97269754	      0.08423805	     10.98414968	      5.63373852	     -4.63588245	    -22.85857539	     12.56299676	      2.67945789	      4.38850035	     -3.31713202	      6.65405133	    -10.68303279	     13.19653823	     -4.42490126	      1.32145700	      4.55362120	     -7.82916736
      1.33000000	     -4.30333793	     -5.99876045	      3.66959154	     -1.05622256	      0.97216584	      0.08342514	     11.48570634	      5.26479984	     -4.64736883	    -23.96043539	     12.81846515	      2.69917392	      4.26214064	     -2.98700538	      6.69217533	    -10.69223426	     13.32300242	     -4.48251480	      1.23093904	      4.28652978	     -7.87426225
      1.34000000	     -4.39047117	     -5.72796109	      3.71666607	     -1.05515261	      0.97144408	      0.08267570	     12.21816087	      4.88448244	     -4.64289792	    -25.22476303	     13.02096082	      2.82984676	      4.25833295	     -2.64901554	      6.74126596	    -10.68676148	     13.40939730	     -4.60871797	      1.27578152	      4.00958717	     -7.90133223
      1.35000000	     -4.40666153	     -5.43618601	      3.75437219	     -1.05393118	      0.97079629	      0.08194377	     12.91369649	      4.48733114	     -4.63508348	    -26.56781924	     13.20185946	      2.90990306	      4.13212869	     -2.29993108	      6.76443388	    -10.62279715	     13.49974953	     -4.71848991	      1.24368014	      3.71926113	     -7.93743474
      1.36000000	     -4.39321235	     -5.13717555	      3.77317040	     -1.05255272	      0.97018795	      0.08127247	     13.62546601	      4.08730334	     -4.63525803	    -28.00157542	     13.35423611	      2.95395208	      3.91934406	     -1.95415641	      6.76229406	    -10.48336656	     13.55434899	     -4.80665014	      1.18421167	      3.42421002	     -7.98238670
      1.37000000	     -4.34545282	     -4.83041176	      3.78532818	     -1.05108654	      0.96962921	      0.08064598	     14.34569532	      3.68802009	     -4.61620178	    -29.50588184	     13.42573161	      2.99682721	      3.65296199	     -1.60501785	      6.77479316	    -10.33268966	     13.66888761	     -4.90089274	      1.08080596	      3.12426309	     -8.03865116
      1.38000000	     -4.39118467	     -4.57281679	      3.76414842	     -1.04953562	      0.96897663	      0.08012740	     15.22313108	      3.34153461	     -4.59841769	    -31.08506566	     13.46372404	      3.15514105	      3.45734850	     -1.31065653	      6.76218595	    -10.13594525	     13.71385316	     -5.10173302	      1.09019827	      2.87653008	     -8.08328121
      1.39000000	     -4.32252383	     -4.30582251	      3.74559275	     -1.04776492	      0.96852134	      0.07966124	     15.98107282	      3.00310168	     -4.58262189	    -32.65417527	     13.45254756	      3.22293515	      3.08027375	     -1.02277996	      6.75285381	     -9.85967909	     13.76953532	     -5.21995839	      0.97613272	      2.62287083	     -8.16874483
      1.40000000	     -4.29301045	     -4.08530650	      3.70850082	     -1.04594214	      0.96805499	      0.07928524	     16.81204117	      2.72825193	     -4.54273948	    -34.22000036	     13.39426044	      3.36258087	      2.74373913	     -0.78521083	      6.75377706	     -9.58700264	     13.83093204	     -5.44996660	      0.90348246	      2.42215284	     -8.22852448
      1.41000000	     -4.18557522	     -3.88650459	      3.68131680	     -1.04391814	      0.96775878	      0.07897334	     17.54380453	      2.49477657	     -4.52169049	    -35.70584801	     13.31070003	      3.38863879	      2.27722000	     -0.58520222	      6.75947014	     -9.24606629	     13.87448192	     -5.55200734	      0.75121407	      2.24786299	     -8.34328653
      1.42000000	     -4.09686621	     -3.73260216	      3.64731279	     -1.04182380	      0.96749085	      0.07874860	     18.29956566	      2.32546085	     -4.49882908	    -37.11302055	     13.23381547	      3.40594930	      1.83433215	     -0.43582672	      6.76731445	     -8.91505437	     13.91894994	     -5.70458391	      0.61635112	      2.12176293	     -8.44941589
      1.43000000	     -4.00670956	     -3.62655848	      3.62798050	     -1.03965265	      0.96728354	      0.07857903	     19.04013307	      2.21912980	     -4.49975586	    -38.39584610	     13.17317478	      3.38749763	      1.39861064	     -0.33988183	      6.79461689	     -8.59916313	     13.96660873	     -5.87637185	      0.47695815	      2.04915009	     -8.57810713
      1.44000000	     -3.93073289	     -3.57517531	      3.63007270	     -1.03744408	      0.96710621	      0.07845598	     19.78107534	      2.17628004	     -4.54040869	    -39.53393885	     13.13938303	      3.31119278	      1.00688554	     -0.30181817	      6.84655899	     -8.32833111	     14.02982644	     -6.13308301	      0.34551992	      2.03549584	     -8.71684600
